<svg xmlns="http://www.w3.org/2000/svg" viewBox="0 0 400 900">
  <!-- Cabeza (vista posterior) -->
  <ellipse cx="200" cy="73" rx="65" ry="68" fill="#f5c5a3" stroke="#d4935e" stroke-width="2"/>
  <!-- Línea del pelo (occipital) -->
  <path d="M140 68 Q200 52 260 68" fill="none" stroke="#8B6B4B" stroke-width="3.5" stroke-linecap="round"/>
  <!-- Protuberancia occipital externa -->
  <ellipse cx="200" cy="120" rx="18" ry="8" fill="none" stroke="rgba(180,120,80,0.3)" stroke-width="1.5"/>
  <!-- Orejas (más visibles desde atrás) -->
  <ellipse cx="134" cy="72" rx="11" ry="20" fill="#f5c5a3" stroke="#d4935e" stroke-width="2"/>
  <ellipse cx="266" cy="72" rx="11" ry="20" fill="#f5c5a3" stroke="#d4935e" stroke-width="2"/>
  <!-- Cuello (posterior) -->
  <path d="M172 138 Q200 142 228 138 L230 186 L170 186 Z" fill="#f5c5a3" stroke="#d4935e" stroke-width="2"/>
  <!-- Línea de los músculos cervicales -->
  <line x1="200" y1="138" x2="200" y2="186" stroke="rgba(180,120,80,0.3)" stroke-width="1.5" stroke-dasharray="3,2"/>
  <!-- Torso (espalda) -->
  <path d="M170 186 C150 186 122 190 105 202 C80 215 63 238 58 272 C52 310 55 355 63 395 C72 432 86 462 100 490 C114 516 130 530 140 535 L260 535 C270 530 286 516 300 490 C314 462 328 432 337 395 C345 355 348 310 342 272 C337 238 320 215 295 202 C278 190 250 186 230 186 Z" fill="#f5c5a3" stroke="#d4935e" stroke-width="2.5"/>
  <!-- Línea de la columna visible en la espalda -->
  <path d="M200 186 L200 470" fill="none" stroke="rgba(180,120,80,0.28)" stroke-width="1.5" stroke-dasharray="4,3"/>
  <!-- Pliegue glúteo -->
  <path d="M140 535 Q200 548 260 535" fill="none" stroke="rgba(180,120,80,0.35)" stroke-width="1.5"/>
  <!-- Brazos (posteriores) -->
  <rect x="86" y="198" width="36" height="142" rx="18" transform="rotate(8 104 198)" fill="#f5c5a3" stroke="#d4935e" stroke-width="2"/>
  <rect x="68" y="342" width="30" height="128" rx="15" transform="rotate(5 83 342)" fill="#f5c5a3" stroke="#d4935e" stroke-width="2"/>
  <ellipse cx="72" cy="482" rx="20" ry="28" fill="#f5c5a3" stroke="#d4935e" stroke-width="1.5"/>
  <rect x="278" y="198" width="36" height="142" rx="18" transform="rotate(-8 296 198)" fill="#f5c5a3" stroke="#d4935e" stroke-width="2"/>
  <rect x="302" y="342" width="30" height="128" rx="15" transform="rotate(-5 317 342)" fill="#f5c5a3" stroke="#d4935e" stroke-width="2"/>
  <ellipse cx="328" cy="482" rx="20" ry="28" fill="#f5c5a3" stroke="#d4935e" stroke-width="1.5"/>
  <!-- Piernas (posteriores) -->
  <rect x="122" y="530" width="68" height="175" rx="32" fill="#f5c5a3" stroke="#d4935e" stroke-width="2"/>
  <rect x="130" y="700" width="54" height="162" rx="25" fill="#f5c5a3" stroke="#d4935e" stroke-width="2"/>
  <ellipse cx="157" cy="877" rx="44" ry="20" fill="#f5c5a3" stroke="#d4935e" stroke-width="2"/>
  <rect x="210" y="530" width="68" height="175" rx="32" fill="#f5c5a3" stroke="#d4935e" stroke-width="2"/>
  <rect x="216" y="700" width="54" height="162" rx="25" fill="#f5c5a3" stroke="#d4935e" stroke-width="2"/>
  <ellipse cx="243" cy="877" rx="44" ry="20" fill="#f5c5a3" stroke="#d4935e" stroke-width="2"/>
  <!-- Tendón de Aquiles izquierdo -->
  <rect x="151" y="848" width="10" height="28" rx="5" fill="#e8b896" stroke="#c07840" stroke-width="1"/>
  <!-- Tendón de Aquiles derecho -->
  <rect x="239" y="848" width="10" height="28" rx="5" fill="#e8b896" stroke="#c07840" stroke-width="1"/>
</svg>
